<?xml version="1.0" encoding="UTF-8" standalone="no"?>
<!DOCTYPE svg PUBLIC "-//W3C//DTD SVG 1.1//EN" "http://www.w3.org/Graphics/SVG/1.1/DTD/svg11.dtd">
<svg width="100%" height="100%" viewBox="0 0 800 800" version="1.1" xmlns="http://www.w3.org/2000/svg" xmlns:xlink="http://www.w3.org/1999/xlink" xml:space="preserve" xmlns:serif="http://www.serif.com/" style="fill-rule:evenodd;clip-rule:evenodd;stroke-linejoin:round;stroke-miterlimit:2;">
    <g id="aq" transform="matrix(12.5,0,0,12.5,0,0)">
        <path d="M46.09,35.65L43.57,42.45L46.09,49.74L48.26,49.74C49.31,49.74 50.16,48.89 50.16,47.84L50.16,37.55C50.16,36.5 49.31,35.65 48.26,35.65L46.09,35.65Z" style="fill:rgb(159,169,182);"/>
        <path d="M46.09,30.53L46.09,57.1C46.09,58.15 45.24,59 44.19,59L7.78,59C6.73,59 5.88,58.15 5.88,57.1L5.88,30.53L46.09,30.53Z" style="fill:rgb(144,255,98);"/>
        <path d="M5.88,30.53L5.88,34.98C5.88,36.4 7.02,37.54 8.44,37.54L43.53,37.54C44.95,37.54 46.09,36.4 46.09,34.98L46.09,30.53L5.88,30.53Z" style="fill:rgb(144,255,98);"/>
        <path d="M8.44,5L43.53,5C44.95,5 46.09,6.14 46.09,7.56L46.09,30.53C46.09,31.94 44.95,33.08 43.53,33.08L8.44,33.08C7.02,33.08 5.88,31.94 5.88,30.53L5.88,7.56C5.88,6.14 7.02,5 8.44,5Z" style="fill:rgb(159,169,182);"/>
        <path d="M46.09,35.65C47.05,35.75 47.8,36.56 47.8,37.55L47.8,47.84C47.8,48.83 47.05,49.64 46.09,49.73L48.26,49.73C49.31,49.74 50.16,48.89 50.16,47.84L50.16,37.55C50.16,36.5 49.31,35.65 48.26,35.65L46.09,35.65Z" style="fill:rgb(137,150,168);"/>
        <path d="M43.95,30.53L43.95,57.1C43.95,58.15 43.1,59 42.05,59L44.19,59C45.24,59 46.09,58.15 46.09,57.1L46.09,30.53L43.95,30.53Z" style="fill:rgb(121,248,117);"/>
        <path d="M31.56,8.78L28.79,18.64L31.56,29.31L42.72,29.31L42.72,8.78L31.56,8.78ZM9.25,8.78L9.25,29.31L20.41,29.31L24.03,22.33L20.41,8.78L9.25,8.78Z" style="fill:rgb(240,243,245);"/>
        <rect x="20.41" y="8.78" width="11.16" height="20.53" style="fill:rgb(228,236,240);"/>
        <path d="M55.84,25.97C57.1,25.97 58.12,26.99 58.12,28.25L58.12,34.26C58.12,35.52 57.1,36.53 55.84,36.53C54.58,36.53 53.56,35.52 53.56,34.26L53.56,28.25C53.56,26.99 54.58,25.97 55.84,25.97Z" style="fill:rgb(137,150,168);"/>
        <path d="M12.7,50.94L22.9,50.94C24,50.94 24.88,51.82 24.88,52.92C24.88,54.02 24,54.89 22.9,54.89L12.7,54.89C11.6,54.89 10.72,54.01 10.72,52.92C10.72,51.83 11.6,50.94 12.7,50.94Z" style="fill:rgb(240,243,245);"/>
        <path d="M19.62,50.94C20.72,50.94 21.6,51.82 21.6,52.92C21.6,54.02 20.72,54.89 19.62,54.89L22.89,54.89C23.99,54.89 24.87,54.01 24.87,52.92C24.87,51.83 23.99,50.94 22.89,50.94L19.62,50.94Z" style="fill:rgb(228,236,240);"/>
        <path d="M41.4,5C42.82,5 43.96,6.14 43.96,7.56L43.96,33.05C45.18,32.85 46.1,31.8 46.1,30.53L46.1,7.56C46.1,6.14 44.96,5 43.54,5L41.4,5Z" style="fill:rgb(137,150,168);"/>
        <path d="M10.73,33.08L10.73,44.89C10.73,46.15 11.74,47.17 13.01,47.17L22.6,47.17C23.86,47.17 24.88,46.15 24.88,44.89L24.88,33.08L10.73,33.08Z" style="fill:rgb(245,230,128);"/>
        <rect x="10.73" y="33.08" width="14.15" height="4.46" style="fill:rgb(242,216,101);"/>
        <path d="M47.09,7.56C47.09,5.6 45.49,4 43.53,4L8.44,4C6.48,4 4.88,5.6 4.88,7.56L4.88,57.1C4.88,58.7 6.18,60 7.78,60L44.19,60C45.79,60 47.09,58.7 47.09,57.1L47.09,50.74L48.26,50.74C49.86,50.74 51.16,49.44 51.16,47.84L51.16,45.11L53.51,45.11C55.35,45.11 56.85,43.62 56.85,41.78L56.85,37.33C58.16,36.9 59.13,35.71 59.13,34.26L59.13,28.25C59.13,26.44 57.66,24.97 55.85,24.97C54.04,24.97 52.57,26.44 52.57,28.25L52.57,34.26C52.57,35.71 53.54,36.9 54.85,37.33L54.85,41.78C54.85,42.51 54.25,43.11 53.51,43.11L51.16,43.11L51.16,37.55C51.16,35.95 49.86,34.65 48.26,34.65L47.09,34.65L47.09,7.56ZM54.57,28.25C54.57,27.54 55.14,26.97 55.85,26.97C56.56,26.97 57.13,27.54 57.13,28.25L57.13,34.26C57.13,34.97 56.57,35.53 55.85,35.53C55.13,35.53 54.57,34.97 54.57,34.26L54.57,28.25ZM6.88,7.56C6.88,6.7 7.58,6 8.44,6L43.53,6C44.39,6 45.09,6.7 45.09,7.56L45.09,30.53C45.09,31.38 44.39,32.08 43.53,32.08L8.44,32.08C7.58,32.08 6.88,31.38 6.88,30.53L6.88,7.56ZM11.72,34.08L23.88,34.08L23.88,44.89C23.88,45.6 23.31,46.17 22.6,46.17L13,46.17C12.3,46.17 11.72,45.6 11.72,44.89L11.72,34.08ZM45.1,57.1C45.1,57.6 44.69,58 44.2,58L7.78,58C7.28,58 6.88,57.6 6.88,57.1L6.88,33.68C7.36,33.92 7.87,34.08 8.44,34.08L9.73,34.08L9.73,44.89C9.73,46.7 11.2,48.17 13.01,48.17L22.6,48.17C24.41,48.17 25.88,46.7 25.88,44.89L25.88,34.08L43.54,34.08C44.11,34.08 44.62,33.92 45.1,33.68L45.1,57.1ZM48.27,36.65C48.77,36.65 49.17,37.05 49.17,37.55L49.17,47.84C49.17,48.34 48.77,48.74 48.27,48.74L47.1,48.74L47.1,36.65L48.27,36.65Z" style="fill-rule:nonzero;"/>
        <path d="M9.25,30.31L42.72,30.31C43.27,30.31 43.72,29.86 43.72,29.31L43.72,8.78C43.72,8.23 43.27,7.78 42.72,7.78L9.25,7.78C8.7,7.78 8.25,8.23 8.25,8.78L8.25,29.31C8.25,29.86 8.7,30.31 9.25,30.31ZM41.72,28.31L32.56,28.31L32.56,9.78L41.72,9.78L41.72,28.31ZM30.56,9.78L30.56,28.31L21.4,28.31L21.4,9.78L30.56,9.78ZM10.25,9.78L19.41,9.78L19.41,28.31L10.25,28.31L10.25,9.78Z" style="fill-rule:nonzero;"/>
        <path d="M22.9,49.94L12.7,49.94C11.06,49.94 9.72,51.28 9.72,52.92C9.72,54.56 11.05,55.89 12.7,55.89L22.9,55.89C24.54,55.89 25.88,54.56 25.88,52.92C25.88,51.28 24.55,49.94 22.9,49.94ZM22.9,53.89L12.7,53.89C12.16,53.89 11.72,53.45 11.72,52.92C11.72,52.39 12.15,51.94 12.7,51.94L22.9,51.94C23.45,51.94 23.88,52.37 23.88,52.92C23.88,53.47 23.44,53.89 22.9,53.89Z" style="fill-rule:nonzero;"/>
        <path d="M21.44,42.43C21.99,42.43 22.44,41.98 22.44,41.43L22.44,38.82C22.44,38.27 21.99,37.82 21.44,37.82C20.89,37.82 20.44,38.27 20.44,38.82L20.44,41.43C20.44,41.98 20.89,42.43 21.44,42.43Z" style="fill-rule:nonzero;"/>
        <path d="M33.71,49.52L40.25,49.52C40.8,49.52 41.25,49.07 41.25,48.52C41.25,47.97 40.8,47.52 40.25,47.52L33.71,47.52C33.16,47.52 32.71,47.97 32.71,48.52C32.71,49.07 33.16,49.52 33.71,49.52Z" style="fill-rule:nonzero;"/>
        <path d="M32.89,51.66L32.01,53.18C31.73,53.66 31.9,54.27 32.38,54.55C32.54,54.64 32.71,54.68 32.88,54.68C33.23,54.68 33.56,54.5 33.75,54.18L34.63,52.66C34.91,52.18 34.74,51.57 34.26,51.29C33.78,51.01 33.17,51.18 32.89,51.66Z" style="fill-rule:nonzero;"/>
        <path d="M36.29,51.66L35.41,53.18C35.13,53.66 35.3,54.27 35.78,54.55C35.94,54.64 36.11,54.68 36.28,54.68C36.63,54.68 36.96,54.5 37.15,54.18L38.03,52.66C38.31,52.18 38.14,51.57 37.66,51.29C37.18,51.01 36.57,51.18 36.29,51.66Z" style="fill-rule:nonzero;"/>
        <path d="M39.69,51.66L38.81,53.18C38.53,53.66 38.7,54.27 39.18,54.55C39.34,54.64 39.51,54.68 39.68,54.68C40.03,54.68 40.36,54.5 40.55,54.18L41.43,52.66C41.71,52.18 41.54,51.57 41.06,51.29C40.58,51.01 39.97,51.18 39.69,51.66Z" style="fill-rule:nonzero;"/>
        <g transform="matrix(0.08,0,0,0.08,-1.52,-5.52)">
            <g transform="matrix(136,0,0,136,530.851953,355.675781)">
            </g>
            <text x="156.148px" y="355.676px" style="font-family:'Arial-BoldMT', 'Arial', sans-serif;font-weight:700;font-size:136px;">Č<tspan x="301.963px 432.637px " y="355.676px 355.676px ">ZU</tspan></text>
        </g>
    </g>
</svg>
